<svg width="24" height="24" viewBox="0 0 24 24" fill="none" xmlns="http://www.w3.org/2000/svg">
<g clip-path="url(#clip0_411_960)">
<path d="M12 24.0003C12.7956 24.0003 13.5587 23.6843 14.1213 23.1217C14.6839 22.559 15 21.796 15 21.0003H9C9 21.796 9.31607 22.559 9.87868 23.1217C10.4413 23.6843 11.2044 24.0003 12 24.0003ZM12 2.87734L10.8045 3.11884C9.44844 3.39514 8.2295 4.13149 7.35398 5.20327C6.47846 6.27505 6.00015 7.61641 6 9.00034C6 9.94234 5.799 12.2958 5.3115 14.6133C5.0715 15.7638 4.7475 16.9623 4.317 18.0003H19.683C19.2525 16.9623 18.93 15.7653 18.6885 14.6133C18.201 12.2958 18 9.94234 18 9.00034C17.9995 7.61667 17.521 6.27566 16.6455 5.20419C15.7701 4.13272 14.5513 3.39658 13.1955 3.12034L12 2.87584V2.87734ZM21.33 18.0003C21.6645 18.6708 22.0515 19.2018 22.5 19.5003H1.5C1.9485 19.2018 2.3355 18.6708 2.67 18.0003C4.02 15.3003 4.5 10.3203 4.5 9.00034C4.5 5.37034 7.08 2.34034 10.5075 1.64884C10.4866 1.44027 10.5096 1.22962 10.5751 1.0305C10.6405 0.831366 10.747 0.64817 10.8876 0.492723C11.0283 0.337275 11.1999 0.213028 11.3915 0.127993C11.5831 0.0429577 11.7904 -0.000976562 12 -0.000976562C12.2096 -0.000976563 12.4169 0.0429577 12.6085 0.127993C12.8001 0.213028 12.9717 0.337275 13.1124 0.492723C13.253 0.64817 13.3595 0.831366 13.4249 1.0305C13.4904 1.22962 13.5134 1.44027 13.4925 1.64884C15.1879 1.99369 16.7121 2.91388 17.8069 4.25359C18.9016 5.5933 19.4998 7.2702 19.5 9.00034C19.5 10.3203 19.98 15.3003 21.33 18.0003Z" fill="#212529"/>
</g>
<defs>
<clipPath id="clip0_411_960">
<rect width="24" height="24" fill="white"/>
</clipPath>
</defs>
</svg>
