<svg width="17" height="17" viewBox="0 0 17 17" fill="none" xmlns="http://www.w3.org/2000/svg">
<path d="M6.5 11.4997C6.03333 11.4997 5.63889 11.3386 5.31667 11.0163C4.99444 10.6941 4.83333 10.2997 4.83333 9.83301C4.83333 9.36634 4.99444 8.9719 5.31667 8.64967C5.63889 8.32745 6.03333 8.16634 6.5 8.16634C6.96667 8.16634 7.36111 8.32745 7.68333 8.64967C8.00556 8.9719 8.16667 9.36634 8.16667 9.83301C8.16667 10.2997 8.00556 10.6941 7.68333 11.0163C7.36111 11.3386 6.96667 11.4997 6.5 11.4997ZM3.83333 15.1663C3.46667 15.1663 3.15278 15.0358 2.89167 14.7747C2.63056 14.5136 2.5 14.1997 2.5 13.833V4.49967C2.5 4.13301 2.63056 3.81912 2.89167 3.55801C3.15278 3.2969 3.46667 3.16634 3.83333 3.16634H4.5V1.83301H5.83333V3.16634H11.1667V1.83301H12.5V3.16634H13.1667C13.5333 3.16634 13.8472 3.2969 14.1083 3.55801C14.3694 3.81912 14.5 4.13301 14.5 4.49967V13.833C14.5 14.1997 14.3694 14.5136 14.1083 14.7747C13.8472 15.0358 13.5333 15.1663 13.1667 15.1663H3.83333ZM3.83333 13.833H13.1667V7.16634H3.83333V13.833Z" fill="black"/>
</svg>
