<svg width="24" height="24" viewBox="0 0 24 24" fill="none" xmlns="http://www.w3.org/2000/svg">
<path d="M22.5 21.002C22.5 21.002 24 21.002 24 19.502C24 18.002 22.5 13.502 16.5 13.502C10.5 13.502 9 18.002 9 19.502C9 21.002 10.5 21.002 10.5 21.002H22.5ZM10.533 19.502C10.5219 19.5004 10.5109 19.4984 10.5 19.496C10.5015 19.1 10.7505 17.951 11.64 16.916C12.468 15.9455 13.923 15.002 16.5 15.002C19.0755 15.002 20.5305 15.947 21.36 16.916C22.2495 17.951 22.497 19.1015 22.5 19.496L22.488 19.499C22.481 19.5001 22.474 19.5011 22.467 19.502H10.533ZM16.5 10.502C17.2956 10.502 18.0587 10.1859 18.6213 9.62327C19.1839 9.06066 19.5 8.2976 19.5 7.50195C19.5 6.7063 19.1839 5.94324 18.6213 5.38063C18.0587 4.81802 17.2956 4.50195 16.5 4.50195C15.7044 4.50195 14.9413 4.81802 14.3787 5.38063C13.8161 5.94324 13.5 6.7063 13.5 7.50195C13.5 8.2976 13.8161 9.06066 14.3787 9.62327C14.9413 10.1859 15.7044 10.502 16.5 10.502ZM21 7.50195C21 8.0929 20.8836 8.67806 20.6575 9.22403C20.4313 9.76999 20.0998 10.2661 19.682 10.6839C19.2641 11.1018 18.768 11.4333 18.2221 11.6594C17.6761 11.8856 17.0909 12.002 16.5 12.002C15.9091 12.002 15.3239 11.8856 14.7779 11.6594C14.232 11.4333 13.7359 11.1018 13.318 10.6839C12.9002 10.2661 12.5687 9.76999 12.3425 9.22403C12.1164 8.67806 12 8.0929 12 7.50195C12 6.30848 12.4741 5.16389 13.318 4.31997C14.1619 3.47606 15.3065 3.00195 16.5 3.00195C17.6935 3.00195 18.8381 3.47606 19.682 4.31997C20.5259 5.16389 21 6.30848 21 7.50195ZM10.404 13.922C9.80397 13.733 9.18545 13.6088 8.559 13.5515C8.207 13.518 7.85359 13.5015 7.5 13.502C1.5 13.502 0 18.002 0 19.502C0 20.5025 0.4995 21.002 1.5 21.002H7.824C7.60163 20.5337 7.49074 20.0203 7.5 19.502C7.5 17.987 8.0655 16.439 9.135 15.146C9.4995 14.705 9.924 14.2925 10.404 13.922ZM7.38 15.002C6.49223 16.3359 6.01266 17.8997 6 19.502H1.5C1.5 19.112 1.746 17.957 2.64 16.916C3.4575 15.962 4.878 15.032 7.38 15.0035V15.002ZM2.25 8.25195C2.25 7.05848 2.72411 5.91389 3.56802 5.06997C4.41193 4.22606 5.55653 3.75195 6.75 3.75195C7.94347 3.75195 9.08807 4.22606 9.93198 5.06997C10.7759 5.91389 11.25 7.05848 11.25 8.25195C11.25 9.44543 10.7759 10.59 9.93198 11.4339C9.08807 12.2778 7.94347 12.752 6.75 12.752C5.55653 12.752 4.41193 12.2778 3.56802 11.4339C2.72411 10.59 2.25 9.44543 2.25 8.25195ZM6.75 5.25195C5.95435 5.25195 5.19129 5.56802 4.62868 6.13063C4.06607 6.69324 3.75 7.4563 3.75 8.25195C3.75 9.0476 4.06607 9.81066 4.62868 10.3733C5.19129 10.9359 5.95435 11.252 6.75 11.252C7.54565 11.252 8.30871 10.9359 8.87132 10.3733C9.43393 9.81066 9.75 9.0476 9.75 8.25195C9.75 7.4563 9.43393 6.69324 8.87132 6.13063C8.30871 5.56802 7.54565 5.25195 6.75 5.25195Z" fill="#212529"/>
</svg>
