<svg width="16" height="20" viewBox="0 0 16 20" fill="none" xmlns="http://www.w3.org/2000/svg">
<path fill-rule="evenodd" clip-rule="evenodd" d="M1.55258 8.47C1.61199 8.32214 1.71589 8.20976 1.84149 8.15751C1.96708 8.10526 2.10413 8.11739 2.22258 8.19125L7.99958 11.8L13.7756 8.19C13.8343 8.15248 13.8985 8.12986 13.9643 8.12347C14.03 8.11707 14.0962 8.12701 14.1589 8.15272C14.2216 8.17843 14.2796 8.2194 14.3296 8.27327C14.3795 8.32713 14.4205 8.39283 14.4501 8.46657C14.4796 8.54032 14.4972 8.62064 14.5018 8.70293C14.5064 8.78521 14.498 8.86782 14.4769 8.94599C14.4559 9.02416 14.4226 9.09635 14.3792 9.1584C14.3357 9.22045 14.2828 9.27112 14.2236 9.3075L8.22358 13.0575C8.15405 13.1011 8.07735 13.1237 7.99958 13.1237C7.92181 13.1237 7.84511 13.1011 7.77558 13.0575L1.77558 9.3075C1.65729 9.23323 1.56739 9.10337 1.52559 8.94637C1.48378 8.78937 1.49349 8.61806 1.55258 8.47V8.47Z" fill="#8E8E8E"/>
</svg>
