<svg width="16" height="20" viewBox="0 0 16 20" fill="none" xmlns="http://www.w3.org/2000/svg">
<path fill-rule="evenodd" clip-rule="evenodd" d="M14.4474 11.53C14.388 11.6779 14.2841 11.7902 14.1585 11.8425C14.0329 11.8947 13.8959 11.8826 13.7774 11.8087L8.00042 8.2L2.22442 11.81C2.16566 11.8475 2.10153 11.8701 2.03574 11.8765C1.96996 11.8829 1.90381 11.873 1.84111 11.8473C1.77841 11.8216 1.7204 11.7806 1.67043 11.7267C1.62045 11.6729 1.57951 11.6072 1.54994 11.5334C1.52038 11.4597 1.50279 11.3794 1.49818 11.2971C1.49357 11.2148 1.50204 11.1322 1.52309 11.054C1.54414 10.9758 1.57737 10.9036 1.62084 10.8416C1.66432 10.7796 1.7172 10.7289 1.77642 10.6925L7.77642 6.9425C7.84595 6.89895 7.92265 6.87627 8.00042 6.87627C8.07819 6.87627 8.15489 6.89895 8.22442 6.9425L14.2244 10.6925C14.3427 10.7668 14.4326 10.8966 14.4744 11.0536C14.5162 11.2106 14.5065 11.3819 14.4474 11.53V11.53Z" fill="#8E8E8E"/>
</svg>
