<svg width="40" height="40" viewBox="0 0 40 40" fill="none" xmlns="http://www.w3.org/2000/svg">
<path d="M11.6667 38.3333L16.3333 14.8333L13.3333 16V21.6667H10V13.8333L18.4167 10.25C18.8056 10.0833 19.2153 9.98611 19.6458 9.95833C20.0764 9.93056 20.4861 9.98611 20.875 10.125C21.2639 10.2639 21.6319 10.4583 21.9792 10.7083C22.3264 10.9583 22.6111 11.2778 22.8333 11.6667L24.5 14.3333C25.2222 15.5 26.2014 16.4583 27.4375 17.2083C28.6736 17.9583 30.0833 18.3333 31.6667 18.3333V21.6667C29.7222 21.6667 27.9861 21.2639 26.4583 20.4583C24.9306 19.6528 23.625 18.625 22.5417 17.375L21.5 22.5L25 25.8333V38.3333H21.6667V27.5L18.1667 24.8333L15.1667 38.3333H11.6667ZM22.5 9.16667C21.5833 9.16667 20.7986 8.84028 20.1458 8.1875C19.4931 7.53472 19.1667 6.75 19.1667 5.83333C19.1667 4.91667 19.4931 4.13194 20.1458 3.47917C20.7986 2.82639 21.5833 2.5 22.5 2.5C23.4167 2.5 24.2014 2.82639 24.8542 3.47917C25.5069 4.13194 25.8333 4.91667 25.8333 5.83333C25.8333 6.75 25.5069 7.53472 24.8542 8.1875C24.2014 8.84028 23.4167 9.16667 22.5 9.16667Z" fill="#1D1B20"/>
</svg>
