<svg width="24" height="24" viewBox="0 0 24 24" fill="none" xmlns="http://www.w3.org/2000/svg">
<path fill-rule="evenodd" clip-rule="evenodd" d="M13.0614 2.24973C12.7802 1.96852 12.3987 1.81055 12.0009 1.81055C11.6032 1.81055 11.2217 1.96852 10.9404 2.24973L0.969947 12.2187C0.900216 12.2885 0.844901 12.3712 0.807162 12.4624C0.769424 12.5535 0.75 12.6511 0.75 12.7497C0.75 12.8483 0.769424 12.946 0.807162 13.0371C0.844901 13.1282 0.900216 13.211 0.969947 13.2807C1.11078 13.4216 1.30178 13.5007 1.50095 13.5007C1.59956 13.5007 1.69721 13.4813 1.78832 13.4435C1.87943 13.4058 1.96222 13.3505 2.03195 13.2807L3.00095 12.3102V20.2497C3.00095 20.8465 3.238 21.4188 3.65996 21.8407C4.08191 22.2627 4.65421 22.4997 5.25095 22.4997H18.7509C19.3477 22.4997 19.92 22.2627 20.3419 21.8407C20.7639 21.4188 21.0009 20.8465 21.0009 20.2497V12.3102L21.9699 13.2807C22.1108 13.4216 22.3018 13.5007 22.5009 13.5007C22.7001 13.5007 22.8911 13.4216 23.0319 13.2807C23.1728 13.1399 23.2519 12.9489 23.2519 12.7497C23.2519 12.5506 23.1728 12.3596 23.0319 12.2187L19.5009 8.68923V3.74973C19.5009 3.55081 19.4219 3.36005 19.2813 3.2194C19.1406 3.07874 18.9499 2.99973 18.7509 2.99973H17.2509C17.052 2.99973 16.8613 3.07874 16.7206 3.2194C16.58 3.36005 16.5009 3.55081 16.5009 3.74973V5.68923L13.0614 2.24973ZM19.5009 10.8102L12.0009 3.31023L4.50095 10.8102V20.2497C4.50095 20.4486 4.57997 20.6394 4.72062 20.7801C4.86127 20.9207 5.05203 20.9997 5.25095 20.9997H18.7509C18.9499 20.9997 19.1406 20.9207 19.2813 20.7801C19.4219 20.6394 19.5009 20.4486 19.5009 20.2497V10.8102Z" fill="#212529"/>
</svg>
