<svg width="28" height="21" viewBox="0 0 28 21" fill="none" xmlns="http://www.w3.org/2000/svg">
<path d="M13.8813 0C16.2738 0 18.4867 0.399994 20.5198 1.19998C22.553 1.99997 24.1604 3.0878 25.3418 4.46344C26.5234 5.83903 27.1141 7.33955 27.1141 8.96494C27.1141 10.5903 26.5234 12.0929 25.3418 13.4728C24.1604 14.8527 22.5555 15.9426 20.5272 16.7426C18.499 17.5426 16.2836 17.9426 13.8813 17.9426C13.1232 17.9426 12.3404 17.896 11.533 17.8029C8.02788 19.8938 6.16214 20.9521 5.93568 20.9774C5.82736 21.0113 5.72395 21.007 5.62551 20.9648C5.58611 20.9393 5.55659 20.9055 5.53689 20.8631C5.51719 20.8208 5.50737 20.7827 5.50737 20.7488V20.6981C5.56647 20.3679 6.01442 18.9923 6.85134 16.5712C4.95108 15.7585 3.4422 14.6813 2.3247 13.3395C1.20719 11.9977 0.648438 10.5395 0.648438 8.96494C0.648438 7.33955 1.23919 5.83903 2.42069 4.46344C3.6022 3.0878 5.20953 1.99997 7.2427 1.19998C9.27586 0.399994 11.4887 0 13.8813 0Z" fill="black"/>
</svg>
