<svg width="22" height="32" viewBox="0 0 22 32" fill="none" xmlns="http://www.w3.org/2000/svg">
<path fill-rule="evenodd" clip-rule="evenodd" d="M12.6826 3.10596C12.5196 2.98715 12.3308 2.96739 12.1578 3.05104C11.9847 3.13468 11.8416 3.31486 11.7599 3.55196L7.63494 15.552C7.58704 15.691 7.56209 15.8444 7.56209 16C7.56209 16.1555 7.58704 16.3089 7.63494 16.448L11.7599 28.448C11.8 28.5664 11.8557 28.6722 11.924 28.7591C11.9922 28.8461 12.0716 28.9125 12.1576 28.9546C12.2436 28.9967 12.3345 29.0137 12.425 29.0044C12.5155 28.9952 12.6038 28.96 12.685 28.9009C12.7661 28.8418 12.8383 28.7599 12.8976 28.6599C12.9569 28.56 13.0019 28.444 13.0302 28.3186C13.0585 28.1932 13.0694 28.0609 13.0624 27.9293C13.0553 27.7977 13.0305 27.6695 12.9892 27.552L9.01957 16L12.9892 4.44796C13.0709 4.21086 13.0845 3.93627 13.027 3.68459C12.9695 3.43292 12.8456 3.22478 12.6826 3.10596Z" fill="#8E8E8E"/>
</svg>
