<svg width="32" height="32" viewBox="0 0 32 32" fill="none" xmlns="http://www.w3.org/2000/svg">
<path d="M9.33333 14.6666V9.33329C9.33333 7.56518 10.0357 5.86949 11.286 4.61925C12.5362 3.369 14.2319 2.66663 16 2.66663C17.7681 2.66663 19.4638 3.369 20.714 4.61925C21.9643 5.86949 22.6667 7.56518 22.6667 9.33329V14.6666M6.66667 14.6666H25.3333C26.8061 14.6666 28 15.8605 28 17.3333V26.6666C28 28.1394 26.8061 29.3333 25.3333 29.3333H6.66667C5.19391 29.3333 4 28.1394 4 26.6666V17.3333C4 15.8605 5.19391 14.6666 6.66667 14.6666Z" stroke="#1E1E1E" stroke-width="2" stroke-linecap="round" stroke-linejoin="round"/>
</svg>
