<svg width="34" height="34" viewBox="0 0 34 34" fill="none" xmlns="http://www.w3.org/2000/svg">
<g clip-path="url(#clip0_245_2850)">
<path d="M9.54608 24.3952C7.57695 22.4261 6.4707 19.7553 6.4707 16.9706C6.4707 14.1858 7.57695 11.5151 9.54608 9.54594C11.5152 7.57681 14.1859 6.47056 16.9707 6.47056C19.7555 6.47056 22.4262 7.57681 24.3953 9.54594C26.3645 11.5151 27.4707 14.1858 27.4707 16.9706C27.4707 19.7553 26.3645 22.4261 24.3953 24.3952C22.4262 26.3643 19.7555 27.4706 16.9707 27.4706C14.1859 27.4706 11.5152 26.3643 9.54608 24.3952ZM8.48542 25.4558C10.7359 27.7063 13.7881 28.9706 16.9707 28.9706C20.1533 28.9706 23.2055 27.7063 25.456 25.4558C27.7064 23.2054 28.9707 20.1532 28.9707 16.9706C28.9707 13.788 27.7064 10.7357 25.456 8.48528C23.2055 6.23484 20.1533 4.97056 16.9707 4.97056C13.7881 4.97056 10.7359 6.23484 8.48542 8.48528C6.23499 10.7357 4.9707 13.788 4.9707 16.9706C4.9707 20.1532 6.23499 23.2054 8.48542 25.4558Z" fill="#212529"/>
<path d="M24.0853 16.9707C24.0855 16.872 24.0661 16.7743 24.0284 16.6831C23.9907 16.592 23.9354 16.5092 23.8657 16.4394C23.7959 16.3696 23.7131 16.3143 23.6219 16.2766C23.5307 16.2389 23.433 16.2196 23.3344 16.2197L10.6065 16.2197C10.5078 16.2197 10.4102 16.2391 10.3191 16.2769C10.228 16.3146 10.1452 16.3699 10.0755 16.4397C10.0057 16.5094 9.95042 16.5922 9.91268 16.6833C9.87494 16.7744 9.85552 16.8721 9.85552 16.9707C9.85552 17.1698 9.93464 17.3608 10.0755 17.5017C10.1452 17.5714 10.228 17.6267 10.3191 17.6645C10.4102 17.7022 10.5078 17.7216 10.6065 17.7216L23.3344 17.7216C23.433 17.7217 23.5307 17.7024 23.6219 17.6647C23.7131 17.627 23.7959 17.5717 23.8657 17.502C23.9354 17.4322 23.9907 17.3494 24.0284 17.2582C24.0661 17.167 24.0855 17.0693 24.0853 16.9707Z" fill="#212529"/>
</g>
<defs>
<clipPath id="clip0_245_2850">
<rect width="24" height="24" fill="white" transform="translate(16.9707) rotate(45)"/>
</clipPath>
</defs>
</svg>
