<svg width="24" height="24" viewBox="0 0 24 24" fill="none" xmlns="http://www.w3.org/2000/svg">
<g clip-path="url(#clip0_302_263)">
<path d="M12.0018 7.13281C11.3624 7.13281 10.7293 7.25875 10.1385 7.50344C9.54779 7.74813 9.01104 8.10678 8.55891 8.55891C8.10678 9.01104 7.74813 9.54779 7.50344 10.1385C7.25875 10.7293 7.13281 11.3624 7.13281 12.0018C7.13281 12.6412 7.25875 13.2744 7.50344 13.8651C7.74813 14.4558 8.10678 14.9926 8.55891 15.4447C9.01104 15.8968 9.54779 16.2555 10.1385 16.5002C10.7293 16.7449 11.3624 16.8708 12.0018 16.8708C13.2932 16.8708 14.5316 16.3578 15.4447 15.4447C16.3578 14.5316 16.8708 13.2932 16.8708 12.0018C16.8708 10.7105 16.3578 9.47202 15.4447 8.55891C14.5316 7.64579 13.2932 7.13281 12.0018 7.13281ZM8.63281 12.0018C8.63281 11.1083 8.98776 10.2514 9.61957 9.61957C10.2514 8.98776 11.1083 8.63281 12.0018 8.63281C12.8953 8.63281 13.7522 8.98776 14.3841 9.61957C15.0159 10.2514 15.3708 11.1083 15.3708 12.0018C15.3708 12.8953 15.0159 13.7522 14.3841 14.3841C13.7522 15.0159 12.8953 15.3708 12.0018 15.3708C11.1083 15.3708 10.2514 15.0159 9.61957 14.3841C8.98776 13.7522 8.63281 12.8953 8.63281 12.0018Z" fill="#212529"/>
<path d="M14.6932 2.01375C13.9028 -0.67125 10.0957 -0.67125 9.30525 2.01375L9.16425 2.49225C9.10904 2.67968 9.0126 2.85238 8.88198 2.99769C8.75135 3.143 8.58987 3.25724 8.40936 3.33203C8.22885 3.40682 8.0339 3.44027 7.83878 3.42993C7.64367 3.41958 7.45334 3.36571 7.28175 3.27225L6.84375 3.03225C4.38375 1.69425 1.69425 4.38525 3.03375 6.84375L3.27225 7.28175C3.36571 7.45334 3.41958 7.64367 3.42993 7.83878C3.44027 8.0339 3.40682 8.22885 3.33203 8.40936C3.25724 8.58987 3.143 8.75135 2.99769 8.88198C2.85238 9.0126 2.67968 9.10904 2.49225 9.16425L2.01375 9.30525C-0.67125 10.0957 -0.67125 13.9028 2.01375 14.6932L2.49225 14.8343C2.67968 14.8895 2.85238 14.9859 2.99769 15.1165C3.143 15.2471 3.25724 15.4086 3.33203 15.5891C3.40682 15.7696 3.44027 15.9646 3.42993 16.1597C3.41958 16.3548 3.36571 16.5452 3.27225 16.7168L3.03225 17.1548C1.69425 19.6147 4.38375 22.3057 6.84375 20.9648L7.28175 20.7262C7.45334 20.6328 7.64367 20.5789 7.83878 20.5686C8.0339 20.5582 8.22885 20.5917 8.40936 20.6665C8.58987 20.7413 8.75135 20.8555 8.88198 21.0008C9.0126 21.1461 9.10904 21.3188 9.16425 21.5063L9.30525 21.9847C10.0957 24.6698 13.9028 24.6698 14.6932 21.9847L14.8343 21.5063C14.8895 21.3188 14.9859 21.1461 15.1165 21.0008C15.2471 20.8555 15.4086 20.7413 15.5891 20.6665C15.7696 20.5917 15.9646 20.5582 16.1597 20.5686C16.3548 20.5789 16.5452 20.6328 16.7168 20.7262L17.1548 20.9662C19.6147 22.3057 22.3057 19.6133 20.9648 17.1548L20.7262 16.7168C20.6328 16.5452 20.5789 16.3548 20.5686 16.1597C20.5582 15.9646 20.5917 15.7696 20.6665 15.5891C20.7413 15.4086 20.8555 15.2471 21.0008 15.1165C21.1461 14.9859 21.3188 14.8895 21.5063 14.8343L21.9847 14.6932C24.6698 13.9028 24.6698 10.0957 21.9847 9.30525L21.5063 9.16425C21.3188 9.10904 21.1461 9.0126 21.0008 8.88198C20.8555 8.75135 20.7413 8.58987 20.6665 8.40936C20.5917 8.22885 20.5582 8.0339 20.5686 7.83878C20.5789 7.64367 20.6328 7.45334 20.7262 7.28175L20.9662 6.84375C22.3057 4.38375 19.6133 1.69425 17.1548 3.03375L16.7168 3.27225C16.5452 3.36571 16.3548 3.41958 16.1597 3.42993C15.9646 3.44027 15.7696 3.40682 15.5891 3.33203C15.4086 3.25724 15.2471 3.143 15.1165 2.99769C14.9859 2.85238 14.8895 2.67968 14.8343 2.49225L14.6932 2.01375ZM10.7437 2.43825C11.1128 1.18575 12.8857 1.18575 13.2548 2.43825L13.3958 2.91675C13.5143 3.31888 13.7213 3.68938 14.0016 4.0011C14.282 4.31282 14.6285 4.55784 15.0159 4.71822C15.4032 4.87859 15.8215 4.95025 16.2402 4.92793C16.6588 4.90562 17.0672 4.7899 17.4352 4.58925L17.8717 4.34925C19.0177 3.72675 20.2717 4.97925 19.6478 6.12675L19.4093 6.56475C19.2089 6.93289 19.0935 7.34119 19.0714 7.75973C19.0493 8.17828 19.1212 8.59645 19.2817 8.98363C19.4422 9.3708 19.6873 9.71715 19.999 9.99731C20.3107 10.2775 20.6812 10.4843 21.0833 10.6027L21.5602 10.7437C22.8127 11.1128 22.8127 12.8857 21.5602 13.2548L21.0818 13.3958C20.6796 13.5143 20.3091 13.7213 19.9974 14.0016C19.6857 14.282 19.4407 14.6285 19.2803 15.0159C19.1199 15.4032 19.0483 15.8215 19.0706 16.2402C19.0929 16.6588 19.2086 17.0672 19.4093 17.4352L19.6493 17.8717C20.2718 19.0177 19.0193 20.2717 17.8717 19.6478L17.4352 19.4093C17.0671 19.2086 16.6586 19.093 16.2399 19.0707C15.8212 19.0485 15.4028 19.1203 15.0154 19.2808C14.6281 19.4414 14.2815 19.6866 14.0013 19.9984C13.721 20.3103 13.5141 20.681 13.3958 21.0833L13.2548 21.5602C12.8857 22.8127 11.1128 22.8127 10.7437 21.5602L10.6027 21.0818C10.4842 20.6798 10.2772 20.3095 9.99695 19.998C9.71671 19.6864 9.37034 19.4415 8.98318 19.2811C8.59603 19.1208 8.17791 19.0491 7.75945 19.0712C7.34099 19.0934 6.93279 19.2089 6.56475 19.4093L6.12675 19.6493C4.98075 20.2718 3.72675 19.0193 4.35075 17.8717L4.58925 17.4352C4.79018 17.0671 4.90613 16.6586 4.92859 16.2398C4.95105 15.821 4.87946 15.4025 4.71907 15.0149C4.55867 14.6274 4.31354 14.2807 4.00167 14.0002C3.68979 13.7198 3.31909 13.5127 2.91675 13.3943L2.43825 13.2533C1.18575 12.8843 1.18575 11.1112 2.43825 10.7423L2.91675 10.6012C3.31846 10.4826 3.68856 10.2757 3.99996 9.99553C4.31137 9.7154 4.5562 9.36919 4.71653 8.98223C4.87686 8.59527 4.94865 8.17736 4.92662 7.75908C4.9046 7.3408 4.78933 6.93273 4.58925 6.56475L4.34925 6.12675C3.72675 4.98075 4.97925 3.72675 6.12675 4.35075L6.56475 4.58925C6.93279 4.78961 7.34099 4.90511 7.75945 4.92728C8.17791 4.94945 8.59603 4.87773 8.98318 4.71737C9.37034 4.55702 9.71671 4.31209 9.99695 4.00053C10.2772 3.68897 10.4842 3.31867 10.6027 2.91675L10.7437 2.43825Z" fill="#212529"/>
</g>
<defs>
<clipPath id="clip0_302_263">
<rect width="24" height="24" fill="white"/>
</clipPath>
</defs>
</svg>
