<svg width="25" height="25" viewBox="0 0 25 25" fill="none" xmlns="http://www.w3.org/2000/svg">
<g clip-path="url(#clip0_245_2847)">
<path d="M12.9414 2.44092C15.7262 2.44092 18.3969 3.54716 20.366 5.5163C22.3352 7.48543 23.4414 10.1561 23.4414 12.9409C23.4414 15.7257 22.3352 18.3964 20.366 20.3655C18.3969 22.3347 15.7262 23.4409 12.9414 23.4409C10.1566 23.4409 7.48592 22.3347 5.51678 20.3655C3.54765 18.3964 2.44141 15.7257 2.44141 12.9409C2.44141 10.1561 3.54765 7.48543 5.51678 5.5163C7.48592 3.54716 10.1566 2.44092 12.9414 2.44092ZM12.9414 0.940918C9.75881 0.940918 6.70656 2.2052 4.45612 4.45564C2.20569 6.70607 0.941406 9.75832 0.941406 12.9409C0.941406 16.1235 2.20569 19.1758 4.45612 21.4262C6.70656 23.6766 9.75881 24.9409 12.9414 24.9409C16.124 24.9409 19.1763 23.6766 21.4267 21.4262C23.6771 19.1758 24.9414 16.1235 24.9414 12.9409C24.9414 9.75832 23.6771 6.70607 21.4267 4.45564C19.1763 2.2052 16.124 0.940918 12.9414 0.940918Z" fill="#212529"/>
<path d="M12.9414 18.9409C12.7425 18.9409 12.5517 18.8619 12.4111 18.7212C12.2704 18.5806 12.1914 18.3898 12.1914 18.1909V13.6909L7.69141 13.6909C7.49249 13.6909 7.30173 13.6119 7.16108 13.4712C7.02042 13.3306 6.94141 13.1398 6.94141 12.9409C6.94141 12.742 7.02042 12.5512 7.16108 12.4106C7.30173 12.2699 7.49249 12.1909 7.69141 12.1909L12.1914 12.1909L12.1914 7.69092C12.1914 7.49201 12.2704 7.30124 12.4111 7.16059C12.5517 7.01993 12.7425 6.94092 12.9414 6.94092C13.1403 6.94092 13.3311 7.01993 13.4717 7.16059C13.6124 7.30124 13.6914 7.49201 13.6914 7.69092L13.6914 12.1909H18.1914C18.3903 12.1909 18.5811 12.2699 18.7217 12.4106C18.8624 12.5512 18.9414 12.742 18.9414 12.9409C18.9414 13.1398 18.8624 13.3306 18.7217 13.4712C18.5811 13.6119 18.3903 13.6909 18.1914 13.6909H13.6914V18.1909C13.6914 18.3898 13.6124 18.5806 13.4717 18.7212C13.3311 18.8619 13.1403 18.9409 12.9414 18.9409Z" fill="#212529"/>
</g>
<defs>
<clipPath id="clip0_245_2847">
<rect width="24" height="24" fill="white" transform="matrix(-1 0 0 -1 24.9414 24.9409)"/>
</clipPath>
</defs>
</svg>
