<svg width="17" height="17" viewBox="0 0 17 17" fill="none" xmlns="http://www.w3.org/2000/svg">
<g clip-path="url(#clip0_242_3388)">
<path fill-rule="evenodd" clip-rule="evenodd" d="M11.3546 7.64592C11.4012 7.69236 11.4381 7.74754 11.4633 7.80828C11.4886 7.86903 11.5015 7.93415 11.5015 7.99992C11.5015 8.06568 11.4886 8.13081 11.4633 8.19155C11.4381 8.2523 11.4012 8.30747 11.3546 8.35392L8.35463 11.3539C8.30819 11.4005 8.25301 11.4374 8.19227 11.4626C8.13152 11.4878 8.0664 11.5008 8.00063 11.5008C7.93486 11.5008 7.86974 11.4878 7.809 11.4626C7.74825 11.4374 7.69308 11.4005 7.64663 11.3539L6.14663 9.85392C6.10014 9.80743 6.06327 9.75224 6.03811 9.6915C6.01295 9.63076 6 9.56566 6 9.49992C6 9.43417 6.01295 9.36907 6.03811 9.30833C6.06327 9.24759 6.10014 9.1924 6.14663 9.14592C6.24052 9.05203 6.36786 8.99929 6.50063 8.99929C6.56638 8.99929 6.63148 9.01223 6.69222 9.03739C6.75295 9.06255 6.80814 9.09943 6.85463 9.14592L8.00063 10.2929L10.6466 7.64592C10.6931 7.59935 10.7483 7.56241 10.809 7.5372C10.8697 7.512 10.9349 7.49902 11.0006 7.49902C11.0664 7.49902 11.1315 7.512 11.1923 7.5372C11.253 7.56241 11.3082 7.59935 11.3546 7.64592Z" fill="#212529"/>
<path d="M4.5 2H3.5C2.96957 2 2.46086 2.21071 2.08579 2.58579C1.71071 2.96086 1.5 3.46957 1.5 4V14.5C1.5 15.0304 1.71071 15.5391 2.08579 15.9142C2.46086 16.2893 2.96957 16.5 3.5 16.5H13.5C14.0304 16.5 14.5391 16.2893 14.9142 15.9142C15.2893 15.5391 15.5 15.0304 15.5 14.5V4C15.5 3.46957 15.2893 2.96086 14.9142 2.58579C14.5391 2.21071 14.0304 2 13.5 2H12.5V3H13.5C13.7652 3 14.0196 3.10536 14.2071 3.29289C14.3946 3.48043 14.5 3.73478 14.5 4V14.5C14.5 14.7652 14.3946 15.0196 14.2071 15.2071C14.0196 15.3946 13.7652 15.5 13.5 15.5H3.5C3.23478 15.5 2.98043 15.3946 2.79289 15.2071C2.60536 15.0196 2.5 14.7652 2.5 14.5V4C2.5 3.73478 2.60536 3.48043 2.79289 3.29289C2.98043 3.10536 3.23478 3 3.5 3H4.5V2Z" fill="#212529"/>
<path d="M10 1.5C10.1326 1.5 10.2598 1.55268 10.3536 1.64645C10.4473 1.74021 10.5 1.86739 10.5 2V3C10.5 3.13261 10.4473 3.25979 10.3536 3.35355C10.2598 3.44732 10.1326 3.5 10 3.5H7C6.86739 3.5 6.74021 3.44732 6.64645 3.35355C6.55268 3.25979 6.5 3.13261 6.5 3V2C6.5 1.86739 6.55268 1.74021 6.64645 1.64645C6.74021 1.55268 6.86739 1.5 7 1.5H10ZM7 0.5C6.60218 0.5 6.22064 0.658035 5.93934 0.93934C5.65804 1.22064 5.5 1.60218 5.5 2V3C5.5 3.39782 5.65804 3.77936 5.93934 4.06066C6.22064 4.34196 6.60218 4.5 7 4.5H10C10.3978 4.5 10.7794 4.34196 11.0607 4.06066C11.342 3.77936 11.5 3.39782 11.5 3V2C11.5 1.60218 11.342 1.22064 11.0607 0.93934C10.7794 0.658035 10.3978 0.5 10 0.5L7 0.5Z" fill="#212529"/>
</g>
<defs>
<clipPath id="clip0_242_3388">
<rect width="16" height="16" fill="white" transform="translate(0.5 0.5)"/>
</clipPath>
</defs>
</svg>
