<svg width="24" height="24" viewBox="0 0 24 24" fill="none" xmlns="http://www.w3.org/2000/svg">
<path fill-rule="evenodd" clip-rule="evenodd" d="M1.5 1.5H2.8125V21.1875H22.5V22.5H1.5V1.5ZM14.625 6.09375C14.625 5.9197 14.6941 5.75278 14.8172 5.62971C14.9403 5.50664 15.1072 5.4375 15.2812 5.4375H20.5312C20.7053 5.4375 20.8722 5.50664 20.9953 5.62971C21.1184 5.75278 21.1875 5.9197 21.1875 6.09375V11.3438C21.1875 11.5178 21.1184 11.6847 20.9953 11.8078C20.8722 11.9309 20.7053 12 20.5312 12C20.3572 12 20.1903 11.9309 20.0672 11.8078C19.9441 11.6847 19.875 11.5178 19.875 11.3438V7.93125L15.1329 13.7286C15.0749 13.7994 15.0026 13.8573 14.9209 13.8986C14.8391 13.9398 14.7496 13.9635 14.6581 13.9681C14.5666 13.9727 14.4752 13.958 14.3897 13.9252C14.3042 13.8923 14.2265 13.8418 14.1617 13.7771L10.7662 10.3817L5.96775 16.9796C5.86278 17.1131 5.71016 17.2007 5.54195 17.224C5.37375 17.2473 5.20306 17.2045 5.06576 17.1046C4.92846 17.0047 4.83524 16.8554 4.80568 16.6882C4.77612 16.521 4.81252 16.3488 4.90725 16.2079L10.1573 8.98912C10.213 8.91236 10.2847 8.84859 10.3674 8.80221C10.4502 8.75583 10.542 8.72793 10.6365 8.72044C10.7311 8.71296 10.8262 8.72606 10.9152 8.75885C11.0042 8.79164 11.085 8.84334 11.1521 8.91037L14.5764 12.336L19.1466 6.75H15.2812C15.1072 6.75 14.9403 6.68086 14.8172 6.55779C14.6941 6.43472 14.625 6.2678 14.625 6.09375Z" fill="#212529"/>
</svg>
