<svg width="16" height="17" viewBox="0 0 16 17" fill="none" xmlns="http://www.w3.org/2000/svg">
<path fill-rule="evenodd" clip-rule="evenodd" d="M6.77578 2.05298C6.89433 1.99358 7.03163 1.9837 7.15746 2.02552C7.2833 2.06734 7.38737 2.15743 7.44678 2.27598L10.4468 8.27598C10.4816 8.34551 10.4998 8.42221 10.4998 8.49998C10.4998 8.57775 10.4816 8.65445 10.4468 8.72398L7.44678 14.724C7.41768 14.7832 7.37714 14.8361 7.3275 14.8796C7.27786 14.923 7.22011 14.9563 7.15757 14.9773C7.09503 14.9984 7.02895 15.0068 6.96312 15.0022C6.8973 14.9976 6.83303 14.98 6.77404 14.9505C6.71505 14.9209 6.66249 14.8799 6.61939 14.83C6.5763 14.78 6.54352 14.722 6.52296 14.6593C6.50239 14.5966 6.49443 14.5304 6.49955 14.4647C6.50467 14.3989 6.52276 14.3347 6.55278 14.276L9.43978 8.49998L6.55278 2.72398C6.49338 2.60543 6.4835 2.46813 6.52532 2.3423C6.56714 2.21646 6.65723 2.11239 6.77578 2.05298Z" fill="#8E8E8E"/>
</svg>
