<svg width="22" height="32" viewBox="0 0 22 32" fill="none" xmlns="http://www.w3.org/2000/svg">
<path fill-rule="evenodd" clip-rule="evenodd" d="M9.31743 3.10596C9.48044 2.98715 9.66922 2.96739 9.84225 3.05104C10.0153 3.13468 10.1584 3.31486 10.2401 3.55196L14.3651 15.552C14.413 15.691 14.4379 15.8444 14.4379 16C14.4379 16.1555 14.413 16.3089 14.3651 16.448L10.2401 28.448C10.2 28.5664 10.1443 28.6722 10.076 28.7591C10.0078 28.8461 9.92838 28.9125 9.84239 28.9546C9.7564 28.9967 9.66554 29.0137 9.57503 29.0044C9.48452 28.9952 9.39615 28.96 9.31504 28.9009C9.23392 28.8418 9.16165 28.7599 9.1024 28.6599C9.04315 28.56 8.99808 28.444 8.9698 28.3186C8.94152 28.1932 8.93058 28.0609 8.93762 27.9293C8.94466 27.7977 8.96953 27.6695 9.01081 27.552L12.9804 16L9.01081 4.44796C8.92913 4.21086 8.91554 3.93627 8.97305 3.68459C9.03055 3.43292 9.15443 3.22478 9.31743 3.10596Z" fill="#8E8E8E"/>
</svg>
