<svg width="16" height="16" viewBox="0 0 16 16" fill="none" xmlns="http://www.w3.org/2000/svg">
<g clip-path="url(#clip0_765_2336)">
<path d="M7.99991 4.75391C7.57364 4.75391 7.15154 4.83787 6.75772 5.00099C6.36389 5.16412 6.00606 5.40322 5.70464 5.70464C5.40322 6.00606 5.16412 6.36389 5.00099 6.75772C4.83787 7.15154 4.75391 7.57364 4.75391 7.99991C4.75391 8.42618 4.83787 8.84827 5.00099 9.2421C5.16412 9.63592 5.40322 9.99376 5.70464 10.2952C6.00606 10.5966 6.36389 10.8357 6.75772 10.9988C7.15154 11.1619 7.57364 11.2459 7.99991 11.2459C8.8608 11.2459 9.68643 10.9039 10.2952 10.2952C10.9039 9.68643 11.2459 8.8608 11.2459 7.99991C11.2459 7.13901 10.9039 6.31338 10.2952 5.70464C9.68643 5.09589 8.8608 4.75391 7.99991 4.75391ZM5.75391 7.99991C5.75391 7.40423 5.99054 6.83295 6.41174 6.41174C6.83295 5.99054 7.40423 5.75391 7.99991 5.75391C8.59558 5.75391 9.16686 5.99054 9.58807 6.41174C10.0093 6.83295 10.2459 7.40423 10.2459 7.99991C10.2459 8.59558 10.0093 9.16686 9.58807 9.58807C9.16686 10.0093 8.59558 10.2459 7.99991 10.2459C7.40423 10.2459 6.83295 10.0093 6.41174 9.58807C5.99054 9.16686 5.75391 8.59558 5.75391 7.99991Z" fill="#212529"/>
<path d="M9.7955 1.34299C9.2685 -0.447012 6.7305 -0.447012 6.2035 1.34299L6.1095 1.66199C6.0727 1.78694 6.0084 1.90207 5.92132 1.99895C5.83424 2.09582 5.72658 2.17198 5.60624 2.22184C5.4859 2.2717 5.35593 2.294 5.22585 2.28711C5.09578 2.28021 4.96889 2.24429 4.8545 2.18199L4.5625 2.02199C2.9225 1.12999 1.1295 2.92399 2.0225 4.56299L2.1815 4.85499C2.24381 4.96938 2.27972 5.09627 2.28662 5.22634C2.29351 5.35642 2.27121 5.48639 2.22135 5.60673C2.17149 5.72707 2.09533 5.83472 1.99846 5.9218C1.90158 6.00889 1.78645 6.07318 1.6615 6.10999L1.3425 6.20399C-0.4475 6.73099 -0.4475 9.26899 1.3425 9.79599L1.6615 9.88999C1.78645 9.92679 1.90158 9.99109 1.99846 10.0782C2.09533 10.1653 2.17149 10.2729 2.22135 10.3932C2.27121 10.5136 2.29351 10.6436 2.28662 10.7736C2.27972 10.9037 2.24381 11.0306 2.1815 11.145L2.0215 11.437C1.1295 13.077 2.9225 14.871 4.5625 13.977L4.8545 13.818C4.96889 13.7557 5.09578 13.7198 5.22585 13.7129C5.35593 13.706 5.4859 13.7283 5.60624 13.7781C5.72658 13.828 5.83424 13.9042 5.92132 14.001C6.0084 14.0979 6.0727 14.213 6.1095 14.338L6.2035 14.657C6.7305 16.447 9.2685 16.447 9.7955 14.657L9.8895 14.338C9.9263 14.213 9.9906 14.0979 10.0777 14.001C10.1648 13.9042 10.2724 13.828 10.3928 13.7781C10.5131 13.7283 10.6431 13.706 10.7731 13.7129C10.9032 13.7198 11.0301 13.7557 11.1445 13.818L11.4365 13.978C13.0765 14.871 14.8705 13.076 13.9765 11.437L13.8175 11.145C13.7552 11.0306 13.7193 10.9037 13.7124 10.7736C13.7055 10.6436 13.7278 10.5136 13.7776 10.3932C13.8275 10.2729 13.9037 10.1653 14.0005 10.0782C14.0974 9.99109 14.2125 9.92679 14.3375 9.88999L14.6565 9.79599C16.4465 9.26899 16.4465 6.73099 14.6565 6.20399L14.3375 6.10999C14.2125 6.07318 14.0974 6.00889 14.0005 5.9218C13.9037 5.83472 13.8275 5.72707 13.7776 5.60673C13.7278 5.48639 13.7055 5.35642 13.7124 5.22634C13.7193 5.09627 13.7552 4.96938 13.8175 4.85499L13.9775 4.56299C14.8705 2.92299 13.0755 1.12999 11.4365 2.02299L11.1445 2.18199C11.0301 2.24429 10.9032 2.28021 10.7731 2.28711C10.6431 2.294 10.5131 2.2717 10.3928 2.22184C10.2724 2.17198 10.1648 2.09582 10.0777 1.99895C9.9906 1.90207 9.9263 1.78694 9.8895 1.66199L9.7955 1.34299ZM7.1625 1.62599C7.4085 0.790988 8.5905 0.790988 8.8365 1.62599L8.9305 1.94499C9.00952 2.21307 9.14754 2.46008 9.33443 2.66789C9.52132 2.8757 9.75235 3.03905 10.0106 3.14597C10.2688 3.25288 10.5477 3.30066 10.8268 3.28578C11.1059 3.2709 11.3781 3.19375 11.6235 3.05999L11.9145 2.89999C12.6785 2.48499 13.5145 3.31999 13.0985 4.08499L12.9395 4.37699C12.8059 4.62242 12.729 4.89462 12.7143 5.17364C12.6995 5.45267 12.7474 5.73146 12.8544 5.98957C12.9615 6.24769 13.1249 6.47859 13.3327 6.66536C13.5405 6.85214 13.7875 6.99005 14.0555 7.06899L14.3735 7.16299C15.2085 7.40899 15.2085 8.59099 14.3735 8.83699L14.0545 8.93099C13.7864 9.01001 13.5394 9.14802 13.3316 9.33491C13.1238 9.5218 12.9604 9.75283 12.8535 10.0111C12.7466 10.2693 12.6988 10.5482 12.7137 10.8273C12.7286 11.1064 12.8057 11.3786 12.9395 11.624L13.0995 11.915C13.5145 12.679 12.6795 13.515 11.9145 13.099L11.6235 12.94C11.378 12.8062 11.1057 12.7291 10.8266 12.7143C10.5474 12.6995 10.2685 12.7474 10.0103 12.8544C9.75204 12.9614 9.52102 13.1249 9.33418 13.3328C9.14734 13.5407 9.00941 13.7878 8.9305 14.056L8.8365 14.374C8.5905 15.209 7.4085 15.209 7.1625 14.374L7.0685 14.055C6.98944 13.787 6.85145 13.5402 6.66463 13.3325C6.47781 13.1248 6.24689 12.9615 5.98879 12.8546C5.73069 12.7477 5.45194 12.6999 5.17297 12.7146C4.894 12.7294 4.62186 12.8064 4.3765 12.94L4.0845 13.1C3.3205 13.515 2.4845 12.68 2.9005 11.915L3.0595 11.624C3.19345 11.3785 3.27075 11.1062 3.28573 10.827C3.3007 10.5478 3.25297 10.2688 3.14604 10.0104C3.03911 9.75207 2.87569 9.52093 2.66778 9.33397C2.45986 9.14701 2.21272 9.00897 1.9445 8.92999L1.6255 8.83599C0.7905 8.58999 0.7905 7.40799 1.6255 7.16199L1.9445 7.06799C2.21231 6.9889 2.45904 6.85093 2.66664 6.66418C2.87425 6.47742 3.03746 6.24662 3.14435 5.98864C3.25124 5.73067 3.2991 5.45206 3.28442 5.17321C3.26973 4.89435 3.19289 4.62231 3.0595 4.37699L2.8995 4.08499C2.4845 3.32099 3.3195 2.48499 4.0845 2.90099L4.3765 3.05999C4.62186 3.19356 4.894 3.27056 5.17297 3.28534C5.45194 3.30012 5.73069 3.25231 5.98879 3.1454C6.24689 3.0385 6.47781 2.87522 6.66463 2.66751C6.85145 2.4598 6.98944 2.21293 7.0685 1.94499L7.1625 1.62599Z" fill="black"/>
</g>
<defs>
<clipPath id="clip0_765_2336">
<rect width="16" height="16" fill="white"/>
</clipPath>
</defs>
</svg>
